G04 EAGLE Gerber RS-274X export*
G75*
%MOMM*%
%FSLAX34Y34*%
%LPD*%
%IN*%
%IPPOS*%
%AMOC8*
5,1,8,0,0,1.08239X$1,22.5*%
G01*
%ADD10C,0.254000*%


D10*
X-723900Y-355600D02*
X-627592Y-389655D01*
X-528682Y-415187D01*
X-427923Y-432001D01*
X-326083Y-439969D01*
X-223935Y-439032D01*
X-122258Y-429194D01*
X-21825Y-410533D01*
X76599Y-383189D01*
X152400Y-355600D01*
X152400Y393700D01*
X85980Y429060D01*
X16732Y458497D01*
X-54819Y481786D01*
X-128128Y498751D01*
X-202635Y509262D01*
X-277776Y513239D01*
X-352977Y510652D01*
X-427667Y501520D01*
X-501276Y485914D01*
X-573245Y463951D01*
X-643026Y435800D01*
X-710089Y401674D01*
X-723900Y393700D01*
X-723900Y-355600D01*
X-696578Y357369D02*
X-696562Y357059D01*
X-696518Y356753D01*
X-696448Y356451D01*
X-696352Y356157D01*
X-696230Y355872D01*
X-696084Y355599D01*
X-695915Y355339D01*
X-695724Y355096D01*
X-695512Y354869D01*
X-695282Y354663D01*
X-695034Y354477D01*
X-694771Y354313D01*
X-694495Y354173D01*
X-694208Y354057D01*
X-693911Y353967D01*
X-693608Y353904D01*
X-693301Y353866D01*
X-692991Y353856D01*
X-681092Y353981D01*
X-680783Y353997D01*
X-680476Y354041D01*
X-680175Y354111D01*
X-679880Y354207D01*
X-679595Y354329D01*
X-679322Y354475D01*
X-679063Y354644D01*
X-678819Y354835D01*
X-678593Y355047D01*
X-678386Y355277D01*
X-678200Y355525D01*
X-678036Y355788D01*
X-677896Y356064D01*
X-677781Y356351D01*
X-677691Y356648D01*
X-677627Y356951D01*
X-677590Y357258D01*
X-677579Y357568D01*
X-677596Y357877D01*
X-677640Y358183D01*
X-677710Y358485D01*
X-677806Y358780D01*
X-677928Y359064D01*
X-678074Y359338D01*
X-678243Y359597D01*
X-678434Y359841D01*
X-678645Y360067D01*
X-678876Y360274D01*
X-679124Y360460D01*
X-679386Y360623D01*
X-679663Y360763D01*
X-679950Y360879D01*
X-680246Y360969D01*
X-680549Y361033D01*
X-680857Y361070D01*
X-681166Y361080D01*
X-693066Y360956D01*
X-693375Y360939D01*
X-693682Y360895D01*
X-693983Y360825D01*
X-694278Y360729D01*
X-694562Y360607D01*
X-694836Y360461D01*
X-695095Y360292D01*
X-695339Y360101D01*
X-695565Y359890D01*
X-695772Y359659D01*
X-695958Y359411D01*
X-696121Y359149D01*
X-696261Y358872D01*
X-696377Y358585D01*
X-696467Y358289D01*
X-696531Y357986D01*
X-696568Y357678D01*
X-696578Y357369D01*
X-695897Y292272D02*
X-695880Y291963D01*
X-695836Y291656D01*
X-695766Y291355D01*
X-695670Y291060D01*
X-695548Y290776D01*
X-695402Y290502D01*
X-695233Y290243D01*
X-695042Y289999D01*
X-694831Y289773D01*
X-694600Y289566D01*
X-694352Y289380D01*
X-694090Y289217D01*
X-693813Y289076D01*
X-693526Y288961D01*
X-693230Y288871D01*
X-692927Y288807D01*
X-692619Y288770D01*
X-692310Y288760D01*
X-680410Y288884D01*
X-680101Y288901D01*
X-679794Y288945D01*
X-679493Y289015D01*
X-679198Y289111D01*
X-678914Y289233D01*
X-678640Y289378D01*
X-678381Y289548D01*
X-678137Y289739D01*
X-677911Y289950D01*
X-677704Y290181D01*
X-677518Y290428D01*
X-677355Y290691D01*
X-677215Y290968D01*
X-677099Y291255D01*
X-677009Y291551D01*
X-676945Y291854D01*
X-676908Y292162D01*
X-676898Y292471D01*
X-676914Y292780D01*
X-676958Y293087D01*
X-677028Y293389D01*
X-677124Y293683D01*
X-677246Y293968D01*
X-677392Y294241D01*
X-677561Y294501D01*
X-677752Y294744D01*
X-677964Y294970D01*
X-678194Y295177D01*
X-678442Y295363D01*
X-678705Y295527D01*
X-678981Y295667D01*
X-679268Y295782D01*
X-679565Y295872D01*
X-679868Y295936D01*
X-680175Y295974D01*
X-680485Y295984D01*
X-692384Y295859D01*
X-692693Y295842D01*
X-693000Y295799D01*
X-693301Y295729D01*
X-693596Y295632D01*
X-693881Y295511D01*
X-694154Y295365D01*
X-694413Y295196D01*
X-694657Y295005D01*
X-694883Y294793D01*
X-695090Y294563D01*
X-695276Y294315D01*
X-695440Y294052D01*
X-695580Y293776D01*
X-695695Y293489D01*
X-695785Y293192D01*
X-695849Y292889D01*
X-695886Y292582D01*
X-695897Y292272D01*
X-271542Y470473D02*
X-271542Y471672D01*
X-271620Y472868D01*
X-271777Y474057D01*
X-272011Y475234D01*
X-272321Y476392D01*
X-272706Y477528D01*
X-273165Y478635D01*
X-273696Y479711D01*
X-274295Y480750D01*
X-274962Y481747D01*
X-275692Y482698D01*
X-276482Y483600D01*
X-277330Y484448D01*
X-278232Y485238D01*
X-279183Y485968D01*
X-280181Y486635D01*
X-281219Y487234D01*
X-282295Y487765D01*
X-283403Y488224D01*
X-284538Y488609D01*
X-285697Y488920D01*
X-286873Y489153D01*
X-288062Y489310D01*
X-289258Y489388D01*
X-290458Y489388D01*
X-291654Y489310D01*
X-292843Y489153D01*
X-294019Y488920D01*
X-295178Y488609D01*
X-296313Y488224D01*
X-297421Y487765D01*
X-298497Y487234D01*
X-299535Y486635D01*
X-300533Y485968D01*
X-301484Y485238D01*
X-302386Y484448D01*
X-303234Y483600D01*
X-304024Y482698D01*
X-304754Y481747D01*
X-305421Y480750D01*
X-306020Y479711D01*
X-306551Y478635D01*
X-307010Y477528D01*
X-307395Y476392D01*
X-307705Y475234D01*
X-307939Y474057D01*
X-308096Y472868D01*
X-308174Y471672D01*
X-308174Y470473D01*
X-308096Y469276D01*
X-307939Y468087D01*
X-307705Y466911D01*
X-307395Y465752D01*
X-307010Y464617D01*
X-306551Y463509D01*
X-306020Y462433D01*
X-305421Y461395D01*
X-304754Y460398D01*
X-304024Y459446D01*
X-303234Y458545D01*
X-302386Y457697D01*
X-301484Y456906D01*
X-300533Y456176D01*
X-299535Y455510D01*
X-298497Y454910D01*
X-297421Y454380D01*
X-296313Y453921D01*
X-295178Y453535D01*
X-294019Y453225D01*
X-292843Y452991D01*
X-291654Y452834D01*
X-290458Y452756D01*
X-289258Y452756D01*
X-288062Y452834D01*
X-286873Y452991D01*
X-285697Y453225D01*
X-284538Y453535D01*
X-283403Y453921D01*
X-282295Y454380D01*
X-281219Y454910D01*
X-280181Y455510D01*
X-279183Y456176D01*
X-278232Y456906D01*
X-277330Y457697D01*
X-276482Y458545D01*
X-275692Y459446D01*
X-274962Y460398D01*
X-274295Y461395D01*
X-273696Y462433D01*
X-273165Y463509D01*
X-272706Y464617D01*
X-272321Y465752D01*
X-272011Y466911D01*
X-271777Y468087D01*
X-271620Y469276D01*
X-271542Y470473D01*
X-647508Y194928D02*
X-647579Y193849D01*
X-647720Y192778D01*
X-647931Y191717D01*
X-648210Y190673D01*
X-648558Y189650D01*
X-648972Y188651D01*
X-649450Y187681D01*
X-649990Y186745D01*
X-650591Y185847D01*
X-651249Y184989D01*
X-651961Y184176D01*
X-652726Y183412D01*
X-653539Y182699D01*
X-654396Y182041D01*
X-655295Y181441D01*
X-656231Y180900D01*
X-657201Y180422D01*
X-658199Y180008D01*
X-659223Y179661D01*
X-660267Y179381D01*
X-661327Y179170D01*
X-662399Y179029D01*
X-663477Y178958D01*
X-664558Y178958D01*
X-665637Y179029D01*
X-666709Y179170D01*
X-667769Y179381D01*
X-668813Y179661D01*
X-669837Y180008D01*
X-670835Y180422D01*
X-671805Y180900D01*
X-672741Y181441D01*
X-673640Y182041D01*
X-674497Y182699D01*
X-675310Y183412D01*
X-676074Y184176D01*
X-676787Y184989D01*
X-677445Y185847D01*
X-678046Y186745D01*
X-678586Y187681D01*
X-679064Y188651D01*
X-679478Y189650D01*
X-679826Y190673D01*
X-680105Y191717D01*
X-680316Y192778D01*
X-680457Y193849D01*
X-680528Y194928D01*
X-680528Y196009D01*
X-680457Y197087D01*
X-680316Y198159D01*
X-680105Y199219D01*
X-679826Y200264D01*
X-679478Y201287D01*
X-679064Y202286D01*
X-678586Y203255D01*
X-678046Y204191D01*
X-677445Y205090D01*
X-676787Y205948D01*
X-676074Y206761D01*
X-675310Y207525D01*
X-674497Y208238D01*
X-673640Y208896D01*
X-672741Y209496D01*
X-671805Y210037D01*
X-670835Y210515D01*
X-669837Y210928D01*
X-668813Y211276D01*
X-667769Y211556D01*
X-666709Y211767D01*
X-665637Y211908D01*
X-664558Y211978D01*
X-663477Y211978D01*
X-662399Y211908D01*
X-661327Y211767D01*
X-660267Y211556D01*
X-659223Y211276D01*
X-658199Y210928D01*
X-657201Y210515D01*
X-656231Y210037D01*
X-655295Y209496D01*
X-654396Y208896D01*
X-653539Y208238D01*
X-652726Y207525D01*
X-651961Y206761D01*
X-651249Y205948D01*
X-650591Y205090D01*
X-649990Y204191D01*
X-649450Y203255D01*
X-648972Y202286D01*
X-648558Y201287D01*
X-648210Y200264D01*
X-647931Y199219D01*
X-647720Y198159D01*
X-647579Y197087D01*
X-647508Y196009D01*
X-647508Y194928D01*
X-686667Y295919D02*
X-687128Y295854D01*
X-687576Y295728D01*
X-688004Y295546D01*
X-688405Y295309D01*
X-688771Y295022D01*
X-689096Y294689D01*
X-689376Y294317D01*
X-689604Y293912D01*
X-689778Y293480D01*
X-689893Y293029D01*
X-689949Y292567D01*
X-689945Y292102D01*
X-689879Y291641D01*
X-689754Y291193D01*
X-689571Y290765D01*
X-689334Y290364D01*
X-689047Y289998D01*
X-688715Y289673D01*
X-688343Y289393D01*
X-687937Y289165D01*
X-687505Y288991D01*
X-687055Y288875D01*
X-686593Y288819D01*
X-686127Y288824D01*
X-685667Y288890D01*
X-685218Y289015D01*
X-684790Y289198D01*
X-684390Y289435D01*
X-684024Y289722D01*
X-683698Y290054D01*
X-683419Y290426D01*
X-683190Y290832D01*
X-683017Y291264D01*
X-682901Y291714D01*
X-682845Y292176D01*
X-682850Y292642D01*
X-682915Y293102D01*
X-683040Y293551D01*
X-683223Y293979D01*
X-683460Y294379D01*
X-683747Y294745D01*
X-684080Y295071D01*
X-684452Y295350D01*
X-684857Y295579D01*
X-685289Y295752D01*
X-685740Y295868D01*
X-686202Y295924D01*
X-686667Y295919D01*
X-687349Y361016D02*
X-687809Y360950D01*
X-688258Y360825D01*
X-688686Y360642D01*
X-689086Y360405D01*
X-689452Y360118D01*
X-689778Y359786D01*
X-690057Y359414D01*
X-690286Y359008D01*
X-690459Y358576D01*
X-690575Y358126D01*
X-690631Y357664D01*
X-690626Y357198D01*
X-690561Y356738D01*
X-690436Y356289D01*
X-690253Y355861D01*
X-690016Y355461D01*
X-689729Y355095D01*
X-689396Y354769D01*
X-689024Y354490D01*
X-688619Y354261D01*
X-688187Y354088D01*
X-687736Y353972D01*
X-687274Y353916D01*
X-686809Y353921D01*
X-686348Y353986D01*
X-685900Y354112D01*
X-685472Y354294D01*
X-685071Y354531D01*
X-684705Y354818D01*
X-684380Y355151D01*
X-684100Y355523D01*
X-683872Y355928D01*
X-683698Y356360D01*
X-683583Y356811D01*
X-683527Y357273D01*
X-683531Y357738D01*
X-683597Y358199D01*
X-683722Y358647D01*
X-683905Y359075D01*
X-684142Y359476D01*
X-684429Y359842D01*
X-684761Y360167D01*
X-685133Y360447D01*
X-685539Y360675D01*
X-685971Y360849D01*
X-686421Y360964D01*
X-686883Y361020D01*
X-687349Y361016D01*
M02*
