G04 EAGLE Gerber RS-274X export*
G75*
%MOMM*%
%FSLAX34Y34*%
%LPD*%
%INSilkscreen Bottom*%
%IPPOS*%
%AMOC8*
5,1,8,0,0,1.08239X$1,22.5*%
G01*
%ADD10C,0.203200*%
%ADD11C,0.127000*%
%ADD12C,0.152400*%
%ADD13C,0.100000*%


D10*
X-517450Y330006D02*
X-517450Y368106D01*
X-444556Y367268D02*
X-444556Y329168D01*
X-371734Y328642D02*
X-371734Y366742D01*
X-298546Y365952D02*
X-298546Y327852D01*
X-225725Y327928D02*
X-225725Y366028D01*
X-152308Y365501D02*
X-152308Y327401D01*
X-79291Y325752D02*
X-79291Y363852D01*
X-6546Y364228D02*
X-6546Y326128D01*
X-518305Y287748D02*
X-518305Y249648D01*
X-444997Y247942D02*
X-444997Y286042D01*
X-519261Y409087D02*
X-519261Y447187D01*
X-372088Y285886D02*
X-372088Y247786D01*
X-299153Y246636D02*
X-299153Y284736D01*
X-224937Y285583D02*
X-224937Y247483D01*
X-151730Y245860D02*
X-151730Y283960D01*
X-79060Y283418D02*
X-79060Y245318D01*
X-5104Y245750D02*
X-5104Y283850D01*
X-518228Y203233D02*
X-518228Y165133D01*
X-444920Y163428D02*
X-444920Y201528D01*
X-372011Y201372D02*
X-372011Y163272D01*
X-298289Y165133D02*
X-298289Y203233D01*
X-446273Y408584D02*
X-446273Y446684D01*
X-224730Y203911D02*
X-224730Y165811D01*
X-151381Y165208D02*
X-151381Y203308D01*
X-77554Y203618D02*
X-77554Y165518D01*
X-3831Y165966D02*
X-3831Y204066D01*
X-518359Y121347D02*
X-518359Y83247D01*
X-445052Y81541D02*
X-445052Y119641D01*
X-372143Y119486D02*
X-372143Y81386D01*
X-298421Y83247D02*
X-298421Y121347D01*
X-224861Y122024D02*
X-224861Y83924D01*
X-151512Y83321D02*
X-151512Y121421D01*
X-373018Y408185D02*
X-373018Y446285D01*
X-77686Y121731D02*
X-77686Y83631D01*
X-3963Y84079D02*
X-3963Y122179D01*
X-517962Y39274D02*
X-517962Y1174D01*
X-444654Y-532D02*
X-444654Y37568D01*
X-371745Y37413D02*
X-371745Y-687D01*
X-298023Y1174D02*
X-298023Y39274D01*
X-224463Y39951D02*
X-224463Y1851D01*
X-151115Y1248D02*
X-151115Y39348D01*
X-77288Y39658D02*
X-77288Y1558D01*
X-3565Y2006D02*
X-3565Y40106D01*
X-299958Y408437D02*
X-299958Y446537D01*
X-517638Y-41299D02*
X-517638Y-79399D01*
X-444331Y-81104D02*
X-444331Y-43004D01*
X-371421Y-43160D02*
X-371421Y-81260D01*
X-297699Y-79399D02*
X-297699Y-41299D01*
X-224140Y-40621D02*
X-224140Y-78721D01*
X-150791Y-79324D02*
X-150791Y-41224D01*
X-76964Y-40914D02*
X-76964Y-79014D01*
X-3241Y-78566D02*
X-3241Y-40466D01*
X-517383Y-123647D02*
X-517383Y-161747D01*
X-444076Y-163453D02*
X-444076Y-125353D01*
X-226783Y408049D02*
X-226783Y446149D01*
X-371166Y-125508D02*
X-371166Y-163608D01*
X-297444Y-161747D02*
X-297444Y-123647D01*
X-223885Y-122969D02*
X-223885Y-161069D01*
X-150536Y-161673D02*
X-150536Y-123573D01*
X-76709Y-123262D02*
X-76709Y-161362D01*
X-2986Y-160915D02*
X-2986Y-122815D01*
X-153737Y408571D02*
X-153737Y446671D01*
X-80042Y445239D02*
X-80042Y407139D01*
X-7297Y407514D02*
X-7297Y445614D01*
D11*
X82667Y-200468D02*
X82667Y-205294D01*
X82667Y-200468D02*
X81327Y-200468D01*
X81327Y-200467D02*
X81256Y-200469D01*
X81184Y-200475D01*
X81114Y-200484D01*
X81044Y-200497D01*
X80974Y-200514D01*
X80906Y-200535D01*
X80839Y-200559D01*
X80773Y-200587D01*
X80709Y-200618D01*
X80646Y-200653D01*
X80586Y-200691D01*
X80527Y-200732D01*
X80471Y-200776D01*
X80417Y-200823D01*
X80366Y-200872D01*
X80318Y-200925D01*
X80272Y-200980D01*
X80230Y-201037D01*
X80190Y-201097D01*
X80154Y-201158D01*
X80121Y-201222D01*
X80092Y-201287D01*
X80066Y-201353D01*
X80043Y-201421D01*
X80024Y-201490D01*
X80009Y-201560D01*
X79998Y-201630D01*
X79990Y-201701D01*
X79986Y-201772D01*
X79986Y-201844D01*
X79990Y-201915D01*
X79998Y-201986D01*
X80009Y-202056D01*
X80024Y-202126D01*
X80043Y-202195D01*
X80066Y-202263D01*
X80092Y-202329D01*
X80121Y-202394D01*
X80154Y-202458D01*
X80190Y-202519D01*
X80230Y-202579D01*
X80272Y-202636D01*
X80318Y-202691D01*
X80366Y-202744D01*
X80417Y-202793D01*
X80471Y-202840D01*
X80527Y-202884D01*
X80586Y-202925D01*
X80646Y-202963D01*
X80709Y-202998D01*
X80773Y-203029D01*
X80839Y-203057D01*
X80906Y-203081D01*
X80974Y-203102D01*
X81044Y-203119D01*
X81114Y-203132D01*
X81184Y-203141D01*
X81256Y-203147D01*
X81327Y-203149D01*
X82667Y-203149D01*
X81059Y-203149D02*
X79986Y-205294D01*
X77245Y-201540D02*
X75904Y-200468D01*
X75904Y-205294D01*
X74564Y-205294D02*
X77245Y-205294D01*
X-156781Y-358851D02*
X-155589Y-363527D01*
X-156781Y-358851D02*
X-158080Y-359182D01*
X-158149Y-359201D01*
X-158216Y-359224D01*
X-158283Y-359251D01*
X-158347Y-359281D01*
X-158410Y-359314D01*
X-158472Y-359351D01*
X-158531Y-359391D01*
X-158588Y-359435D01*
X-158642Y-359481D01*
X-158694Y-359530D01*
X-158743Y-359581D01*
X-158790Y-359635D01*
X-158833Y-359692D01*
X-158874Y-359751D01*
X-158911Y-359812D01*
X-158945Y-359875D01*
X-158976Y-359939D01*
X-159003Y-360005D01*
X-159026Y-360073D01*
X-159046Y-360141D01*
X-159062Y-360211D01*
X-159075Y-360281D01*
X-159084Y-360352D01*
X-159089Y-360423D01*
X-159090Y-360494D01*
X-159087Y-360566D01*
X-159081Y-360637D01*
X-159071Y-360707D01*
X-159057Y-360778D01*
X-159039Y-360847D01*
X-159018Y-360915D01*
X-158993Y-360982D01*
X-158965Y-361047D01*
X-158933Y-361111D01*
X-158897Y-361173D01*
X-158859Y-361233D01*
X-158817Y-361291D01*
X-158773Y-361347D01*
X-158725Y-361400D01*
X-158675Y-361451D01*
X-158622Y-361499D01*
X-158567Y-361544D01*
X-158509Y-361586D01*
X-158449Y-361625D01*
X-158387Y-361660D01*
X-158323Y-361693D01*
X-158258Y-361722D01*
X-158191Y-361747D01*
X-158123Y-361769D01*
X-158054Y-361787D01*
X-157984Y-361801D01*
X-157914Y-361812D01*
X-157843Y-361819D01*
X-157771Y-361822D01*
X-157700Y-361821D01*
X-157629Y-361817D01*
X-157558Y-361808D01*
X-157487Y-361796D01*
X-157418Y-361780D01*
X-156119Y-361449D01*
X-157677Y-361846D02*
X-158187Y-364190D01*
X-161903Y-360710D02*
X-162036Y-360190D01*
X-164634Y-360853D01*
X-162142Y-365198D01*
D12*
X-242642Y-366621D02*
X-242642Y-363319D01*
X-320874Y-211427D02*
X-320874Y-208125D01*
X-242642Y-208125D01*
X-242642Y-211427D01*
X-242642Y-366621D02*
X-320874Y-366621D01*
X-320874Y-363319D01*
D11*
X-713844Y287134D02*
X-714629Y362130D01*
D13*
X-651354Y312295D02*
X-651352Y312339D01*
X-651346Y312383D01*
X-651336Y312426D01*
X-651323Y312468D01*
X-651306Y312509D01*
X-651285Y312548D01*
X-651261Y312585D01*
X-651234Y312620D01*
X-651204Y312652D01*
X-651171Y312682D01*
X-651135Y312708D01*
X-651098Y312732D01*
X-651058Y312751D01*
X-651017Y312768D01*
X-650974Y312780D01*
X-650931Y312789D01*
X-650887Y312794D01*
X-650843Y312795D01*
X-650799Y312792D01*
X-650755Y312785D01*
X-650712Y312774D01*
X-650670Y312760D01*
X-650630Y312742D01*
X-650591Y312720D01*
X-650555Y312696D01*
X-650521Y312668D01*
X-650489Y312637D01*
X-650460Y312603D01*
X-650434Y312567D01*
X-650412Y312529D01*
X-650393Y312489D01*
X-650378Y312447D01*
X-650366Y312405D01*
X-650358Y312361D01*
X-650354Y312317D01*
X-650354Y312273D01*
X-650358Y312229D01*
X-650366Y312185D01*
X-650378Y312143D01*
X-650393Y312101D01*
X-650412Y312061D01*
X-650434Y312023D01*
X-650460Y311987D01*
X-650489Y311953D01*
X-650521Y311922D01*
X-650555Y311894D01*
X-650591Y311870D01*
X-650630Y311848D01*
X-650670Y311830D01*
X-650712Y311816D01*
X-650755Y311805D01*
X-650799Y311798D01*
X-650843Y311795D01*
X-650887Y311796D01*
X-650931Y311801D01*
X-650974Y311810D01*
X-651017Y311822D01*
X-651058Y311839D01*
X-651098Y311858D01*
X-651135Y311882D01*
X-651171Y311908D01*
X-651204Y311938D01*
X-651234Y311970D01*
X-651261Y312005D01*
X-651285Y312042D01*
X-651306Y312081D01*
X-651323Y312122D01*
X-651336Y312164D01*
X-651346Y312207D01*
X-651352Y312251D01*
X-651354Y312295D01*
D11*
X-658062Y308219D02*
X-658009Y303220D01*
X-658418Y342217D02*
X-658470Y347217D01*
X-701669Y365966D02*
X-700825Y285370D01*
M02*
