G04 EAGLE Gerber RS-274X export*
G75*
%MOMM*%
%FSLAX34Y34*%
%LPD*%
%INSolderpaste Bottom*%
%IPPOS*%
%AMOC8*
5,1,8,0,0,1.08239X$1,22.5*%
G01*
%ADD10R,1.000000X1.100000*%
%ADD11R,1.100000X1.000000*%
%ADD12R,1.981200X0.533400*%
%ADD13R,1.350000X0.400000*%
%ADD14R,1.600000X1.400000*%
%ADD15R,1.900000X1.900000*%

G36*
X-686328Y285817D02*
X-686328Y285817D01*
X-679779Y285886D01*
X-679778Y285886D01*
X-678619Y286012D01*
X-678618Y286013D01*
X-678618Y286012D01*
X-677505Y286363D01*
X-677504Y286363D01*
X-676482Y286924D01*
X-676481Y286924D01*
X-675587Y287674D01*
X-675586Y287674D01*
X-674856Y288584D01*
X-674855Y288584D01*
X-674316Y289619D01*
X-674316Y289620D01*
X-673989Y290739D01*
X-673989Y290740D01*
X-673887Y291902D01*
X-673887Y291903D01*
X-673899Y293103D01*
X-674026Y294263D01*
X-674026Y294264D01*
X-674376Y295376D01*
X-674377Y295377D01*
X-674376Y295377D01*
X-674937Y296400D01*
X-674938Y296400D01*
X-674938Y296401D01*
X-675687Y297295D01*
X-675688Y297295D01*
X-676597Y298026D01*
X-676598Y298026D01*
X-677632Y298565D01*
X-677633Y298565D01*
X-677633Y298566D01*
X-678753Y298893D01*
X-678753Y298892D01*
X-678754Y298893D01*
X-679916Y298995D01*
X-680364Y298990D01*
X-680367Y298990D01*
X-680838Y298985D01*
X-680841Y298985D01*
X-681313Y298980D01*
X-681316Y298980D01*
X-681787Y298975D01*
X-681790Y298975D01*
X-682262Y298970D01*
X-682264Y298970D01*
X-682736Y298965D01*
X-682739Y298965D01*
X-683210Y298960D01*
X-683213Y298960D01*
X-683685Y298955D01*
X-683688Y298955D01*
X-684159Y298950D01*
X-684162Y298950D01*
X-684634Y298946D01*
X-684637Y298946D01*
X-684637Y298945D01*
X-685108Y298941D01*
X-685111Y298941D01*
X-685583Y298936D01*
X-685585Y298936D01*
X-685586Y298936D01*
X-686057Y298931D01*
X-686060Y298931D01*
X-686531Y298926D01*
X-686534Y298926D01*
X-687006Y298921D01*
X-687009Y298921D01*
X-687480Y298916D01*
X-687483Y298916D01*
X-687955Y298911D01*
X-687958Y298911D01*
X-688429Y298906D01*
X-688432Y298906D01*
X-688904Y298901D01*
X-688907Y298901D01*
X-689378Y298896D01*
X-689381Y298896D01*
X-689853Y298891D01*
X-689855Y298891D01*
X-690327Y298886D01*
X-690330Y298886D01*
X-690801Y298881D01*
X-690804Y298881D01*
X-691276Y298876D01*
X-691279Y298876D01*
X-691750Y298871D01*
X-691753Y298871D01*
X-692225Y298866D01*
X-692228Y298866D01*
X-692699Y298861D01*
X-692702Y298861D01*
X-693015Y298858D01*
X-693016Y298857D01*
X-693016Y298858D01*
X-694251Y298716D01*
X-694251Y298715D01*
X-694252Y298715D01*
X-695431Y298321D01*
X-695431Y298320D01*
X-695432Y298320D01*
X-696503Y297690D01*
X-696504Y297690D01*
X-697423Y296852D01*
X-697423Y296851D01*
X-698148Y295841D01*
X-698149Y295841D01*
X-698649Y294703D01*
X-698649Y294702D01*
X-698650Y294702D01*
X-698904Y293485D01*
X-698904Y293484D01*
X-698901Y292241D01*
X-698895Y291641D01*
X-698895Y291640D01*
X-698769Y290481D01*
X-698768Y290480D01*
X-698418Y289367D01*
X-698418Y289366D01*
X-697857Y288343D01*
X-697107Y287449D01*
X-697107Y287448D01*
X-696197Y286718D01*
X-696196Y286717D01*
X-695162Y286178D01*
X-695161Y286178D01*
X-694042Y285851D01*
X-694041Y285851D01*
X-692879Y285749D01*
X-692878Y285749D01*
X-686328Y285817D01*
G37*
G36*
X-687010Y350914D02*
X-687010Y350914D01*
X-680461Y350982D01*
X-680460Y350982D01*
X-679301Y351109D01*
X-679300Y351109D01*
X-678187Y351459D01*
X-678187Y351460D01*
X-678186Y351459D01*
X-677163Y352020D01*
X-677163Y352021D01*
X-677162Y352021D01*
X-676269Y352770D01*
X-676269Y352771D01*
X-676268Y352771D01*
X-675537Y353680D01*
X-675537Y353681D01*
X-674998Y354715D01*
X-674998Y354716D01*
X-674671Y355836D01*
X-674670Y355837D01*
X-674568Y356999D01*
X-674569Y356999D01*
X-674568Y356999D01*
X-674581Y358199D01*
X-674581Y358200D01*
X-674707Y359359D01*
X-674708Y359360D01*
X-675058Y360473D01*
X-675058Y360474D01*
X-675619Y361496D01*
X-675619Y361497D01*
X-676369Y362391D01*
X-676369Y362392D01*
X-677279Y363122D01*
X-677280Y363123D01*
X-678314Y363662D01*
X-678315Y363662D01*
X-679434Y363989D01*
X-679435Y363989D01*
X-680597Y364091D01*
X-680598Y364091D01*
X-681045Y364087D01*
X-681048Y364087D01*
X-681520Y364082D01*
X-681523Y364082D01*
X-681994Y364077D01*
X-681997Y364077D01*
X-682469Y364072D01*
X-682472Y364072D01*
X-682943Y364067D01*
X-682946Y364067D01*
X-683418Y364062D01*
X-683421Y364062D01*
X-683892Y364057D01*
X-683895Y364057D01*
X-684367Y364052D01*
X-684369Y364052D01*
X-684841Y364047D01*
X-684844Y364047D01*
X-685315Y364042D01*
X-685318Y364042D01*
X-685790Y364037D01*
X-685793Y364037D01*
X-686264Y364032D01*
X-686267Y364032D01*
X-686739Y364027D01*
X-686742Y364027D01*
X-687213Y364022D01*
X-687216Y364022D01*
X-687688Y364017D01*
X-687690Y364017D01*
X-687691Y364017D01*
X-688162Y364012D01*
X-688165Y364012D01*
X-688636Y364007D01*
X-688639Y364007D01*
X-689111Y364002D01*
X-689114Y364002D01*
X-689585Y363997D01*
X-689588Y363997D01*
X-690060Y363992D01*
X-690063Y363992D01*
X-690534Y363987D01*
X-690537Y363987D01*
X-691009Y363982D01*
X-691012Y363982D01*
X-691483Y363977D01*
X-691486Y363977D01*
X-691958Y363972D01*
X-691960Y363972D01*
X-692432Y363967D01*
X-692435Y363967D01*
X-692906Y363962D01*
X-692909Y363962D01*
X-693381Y363957D01*
X-693384Y363957D01*
X-693697Y363954D01*
X-693698Y363954D01*
X-694933Y363812D01*
X-694933Y363811D01*
X-694934Y363812D01*
X-696112Y363417D01*
X-696113Y363417D01*
X-697185Y362787D01*
X-697185Y362786D01*
X-697186Y362786D01*
X-698104Y361948D01*
X-698105Y361948D01*
X-698830Y360938D01*
X-698830Y360937D01*
X-698831Y360937D01*
X-699331Y359799D01*
X-699331Y359798D01*
X-699586Y358581D01*
X-699585Y358581D01*
X-699586Y358580D01*
X-699583Y357337D01*
X-699577Y356737D01*
X-699450Y355577D01*
X-699450Y355576D01*
X-699100Y354464D01*
X-699099Y354463D01*
X-699100Y354463D01*
X-698539Y353440D01*
X-698538Y353440D01*
X-698538Y353439D01*
X-697789Y352545D01*
X-697788Y352545D01*
X-696879Y351814D01*
X-696878Y351814D01*
X-695844Y351275D01*
X-695843Y351275D01*
X-695843Y351274D01*
X-694723Y350947D01*
X-694723Y350948D01*
X-694722Y350947D01*
X-693560Y350845D01*
X-687010Y350914D01*
G37*
%LPC*%
G36*
X-693099Y288845D02*
X-693099Y288845D01*
X-693851Y289100D01*
X-694528Y289515D01*
X-695095Y290070D01*
X-695524Y290738D01*
X-695794Y291484D01*
X-695892Y292272D01*
X-695811Y293062D01*
X-695557Y293814D01*
X-695141Y294490D01*
X-694586Y295058D01*
X-693918Y295487D01*
X-693172Y295757D01*
X-692384Y295854D01*
X-680485Y295979D01*
X-679695Y295898D01*
X-678943Y295644D01*
X-678266Y295229D01*
X-677699Y294673D01*
X-677270Y294006D01*
X-677000Y293259D01*
X-676903Y292471D01*
X-676983Y291681D01*
X-677238Y290929D01*
X-677653Y290253D01*
X-678208Y289686D01*
X-678876Y289256D01*
X-679623Y288986D01*
X-680411Y288889D01*
X-680452Y288889D01*
X-680455Y288889D01*
X-680927Y288884D01*
X-680929Y288884D01*
X-681401Y288879D01*
X-681404Y288879D01*
X-681875Y288874D01*
X-681878Y288874D01*
X-682350Y288869D01*
X-682353Y288869D01*
X-682824Y288864D01*
X-682827Y288864D01*
X-683299Y288859D01*
X-683302Y288859D01*
X-683773Y288854D01*
X-683776Y288854D01*
X-684248Y288849D01*
X-684250Y288849D01*
X-684722Y288844D01*
X-684725Y288844D01*
X-685196Y288839D01*
X-685199Y288839D01*
X-685671Y288834D01*
X-685674Y288834D01*
X-686145Y288829D01*
X-686148Y288829D01*
X-686360Y288827D01*
X-686620Y288824D01*
X-686623Y288824D01*
X-687094Y288819D01*
X-687097Y288819D01*
X-687568Y288814D01*
X-687571Y288814D01*
X-688043Y288809D01*
X-688046Y288809D01*
X-688517Y288804D01*
X-688520Y288804D01*
X-688992Y288799D01*
X-688995Y288799D01*
X-689466Y288794D01*
X-689469Y288794D01*
X-689941Y288789D01*
X-689943Y288789D01*
X-689944Y288789D01*
X-690415Y288784D01*
X-690418Y288784D01*
X-690889Y288779D01*
X-690892Y288779D01*
X-691364Y288774D01*
X-691367Y288774D01*
X-691838Y288770D01*
X-691841Y288770D01*
X-691841Y288769D01*
X-692309Y288765D01*
X-693099Y288845D01*
G37*
%LPD*%
%LPC*%
G36*
X-693781Y353942D02*
X-693781Y353942D01*
X-694533Y354196D01*
X-695210Y354611D01*
X-695777Y355167D01*
X-696206Y355834D01*
X-696476Y356581D01*
X-696573Y357369D01*
X-696493Y358159D01*
X-696238Y358910D01*
X-695823Y359587D01*
X-695268Y360154D01*
X-694600Y360583D01*
X-693853Y360854D01*
X-693065Y360951D01*
X-681167Y361075D01*
X-680377Y360995D01*
X-679625Y360740D01*
X-678948Y360325D01*
X-678381Y359770D01*
X-677952Y359102D01*
X-677682Y358355D01*
X-677584Y357568D01*
X-677665Y356778D01*
X-677919Y356026D01*
X-678335Y355349D01*
X-678890Y354782D01*
X-679558Y354353D01*
X-680304Y354083D01*
X-681092Y353986D01*
X-681134Y353985D01*
X-681137Y353985D01*
X-681608Y353980D01*
X-681611Y353980D01*
X-682083Y353975D01*
X-682086Y353975D01*
X-682557Y353970D01*
X-682560Y353970D01*
X-683032Y353965D01*
X-683034Y353965D01*
X-683506Y353960D01*
X-683509Y353960D01*
X-683980Y353955D01*
X-683983Y353955D01*
X-684455Y353950D01*
X-684458Y353950D01*
X-684929Y353945D01*
X-684932Y353945D01*
X-685404Y353940D01*
X-685407Y353940D01*
X-685878Y353936D01*
X-685881Y353936D01*
X-685881Y353935D01*
X-686352Y353931D01*
X-686355Y353931D01*
X-686827Y353926D01*
X-686830Y353926D01*
X-687042Y353923D01*
X-687301Y353921D01*
X-687304Y353921D01*
X-687776Y353916D01*
X-687779Y353916D01*
X-688250Y353911D01*
X-688253Y353911D01*
X-688725Y353906D01*
X-688728Y353906D01*
X-689199Y353901D01*
X-689202Y353901D01*
X-689673Y353896D01*
X-689676Y353896D01*
X-690148Y353891D01*
X-690151Y353891D01*
X-690622Y353886D01*
X-690625Y353886D01*
X-691097Y353881D01*
X-691100Y353881D01*
X-691571Y353876D01*
X-691574Y353876D01*
X-692046Y353871D01*
X-692048Y353871D01*
X-692520Y353866D01*
X-692523Y353866D01*
X-692991Y353861D01*
X-693781Y353942D01*
G37*
%LPD*%
D10*
X21616Y256335D03*
X21616Y273335D03*
X21616Y400335D03*
X21616Y383335D03*
D11*
X82437Y-205126D03*
X65437Y-205126D03*
X-159863Y-280684D03*
X-176863Y-280684D03*
D10*
X-363807Y-379214D03*
X-363807Y-362214D03*
X-491381Y-298342D03*
X-491381Y-315342D03*
D11*
X-167858Y-357524D03*
X-150858Y-357524D03*
D10*
X-576349Y-296052D03*
X-576349Y-313052D03*
X-577516Y-222250D03*
X-577516Y-205250D03*
D12*
X-328621Y-357223D03*
X-328621Y-344523D03*
X-328621Y-331823D03*
X-328621Y-319123D03*
X-328621Y-306423D03*
X-328621Y-293723D03*
X-328621Y-281023D03*
X-328621Y-268323D03*
X-328621Y-255623D03*
X-328621Y-242923D03*
X-328621Y-230223D03*
X-328621Y-217523D03*
X-234895Y-217523D03*
X-234895Y-230223D03*
X-234895Y-242923D03*
X-234895Y-255623D03*
X-234895Y-268323D03*
X-234895Y-281023D03*
X-234895Y-293723D03*
X-234895Y-306423D03*
X-234895Y-319123D03*
X-234895Y-331823D03*
X-234895Y-344523D03*
X-234895Y-357223D03*
D13*
G36*
X-653083Y310272D02*
X-666581Y310131D01*
X-666623Y314130D01*
X-653125Y314271D01*
X-653083Y310272D01*
G37*
G36*
X-653151Y316771D02*
X-666649Y316630D01*
X-666691Y320629D01*
X-653193Y320770D01*
X-653151Y316771D01*
G37*
G36*
X-653219Y323271D02*
X-666717Y323130D01*
X-666759Y327129D01*
X-653261Y327270D01*
X-653219Y323271D01*
G37*
G36*
X-653288Y329771D02*
X-666786Y329630D01*
X-666828Y333629D01*
X-653330Y333770D01*
X-653288Y329771D01*
G37*
G36*
X-653356Y336270D02*
X-666854Y336129D01*
X-666896Y340128D01*
X-653398Y340269D01*
X-653356Y336270D01*
G37*
D14*
G36*
X-654989Y301250D02*
X-654821Y285252D01*
X-668819Y285106D01*
X-668987Y301104D01*
X-654989Y301250D01*
G37*
G36*
X-655659Y365247D02*
X-655491Y349249D01*
X-669489Y349103D01*
X-669657Y365101D01*
X-655659Y365247D01*
G37*
D15*
G36*
X-677213Y322519D02*
X-677014Y303522D01*
X-696011Y303323D01*
X-696210Y322320D01*
X-677213Y322519D01*
G37*
G36*
X-677465Y346517D02*
X-677266Y327520D01*
X-696263Y327321D01*
X-696462Y346318D01*
X-677465Y346517D01*
G37*
M02*
