M48
;GenerationSoftware,Autodesk,EAGLE,9.2.2*%
;CreationDate,2019-03-11T18:29:13Z*%
FMAT,2
ICI,OFF
METRIC,TZ,000.000
T10C0.350
T9C0.700
T8C0.710
T7C0.800
T6C0.813
T5C0.850
T4C0.900
T3C0.914
T2C1.016
T1C3.302
%
G90
M71
T1
X-66402Y19547
T2
X-66402Y4561
X-63862Y4561
X-68942Y4561
T3
X-68698Y-2444
X-68698Y-4984
T4
X12466Y30285
X9926Y30285
X9926Y35365
X12466Y35365
X12466Y32825
X9926Y32825
T5
X12193Y9899
X12193Y-261
X12193Y2279
X12193Y-2801
X12193Y7359
X12193Y4819
X12193Y-7881
X12193Y-10421
X4273Y9899
X4273Y12439
X4273Y14979
X4273Y17519
X4273Y20059
X4273Y22599
X12193Y22599
X12193Y20059
X12193Y17519
X12193Y14979
X12193Y-5341
X12193Y12439
X4273Y-10421
X4273Y-7881
X4273Y-5341
X4273Y-2801
X4273Y-261
X4273Y2279
X4273Y4819
X4273Y7359
T6
X-18889Y-6027
X-16349Y-6027
X-11506Y-5996
X-8966Y-5996
X-4134Y-5952
X-1594Y-5952
X-55548Y-14270
X-53008Y-14270
X-48218Y-14440
X-45678Y-14440
X-26488Y42710
X-23948Y42710
X-40927Y-14456
X-33554Y-14270
X-31014Y-14270
X-26198Y-14202
X-23658Y-14202
X-18864Y-14262
X-16324Y-14262
X-11481Y-14231
X-8941Y-14231
X-4109Y-14186
X-1569Y-14186
X-19184Y42762
X-16644Y42762
X-11814Y42619
X-9274Y42619
X-4540Y42656
X-2000Y42656
X-1653Y18502
X-55555Y34906
X-53015Y34906
X-48266Y34822
X-45726Y34822
X-40983Y34769
X-38443Y34769
X-33665Y34690
X-31125Y34690
X-26383Y34698
X-23843Y34698
X-19041Y34645
X-16501Y34645
X-11739Y34480
X-9199Y34480
X-4465Y34518
X-1925Y34518
X-55640Y26870
X-53100Y26870
X-48310Y26699
X-45770Y26699
X-55736Y42814
X-53196Y42814
X-41019Y26684
X-38479Y26684
X-33725Y26569
X-31185Y26569
X-26304Y26653
X-23764Y26653
X-18983Y26491
X-16443Y26491
X-11716Y26437
X-9176Y26437
X-4320Y26480
X-1780Y26480
X-55633Y18418
X-53093Y18418
X-48302Y18248
X-45762Y18248
X-41011Y18232
X-38471Y18232
X-33639Y18418
X-31099Y18418
X-48437Y42763
X-45897Y42763
X-26283Y18486
X-23743Y18486
X-18948Y18426
X-16408Y18426
X-11565Y18457
X-9025Y18457
X-4193Y18502
X-38387Y-14456
X-55646Y10230
X-53106Y10230
X-48315Y10059
X-45775Y10059
X-41024Y10044
X-38484Y10044
X-33652Y10230
X-31112Y10230
X-26296Y10297
X-23756Y10297
X-18961Y10237
X-16421Y10237
X-41112Y42724
X-38572Y42724
X-11579Y10268
X-9039Y10268
X-4206Y10313
X-1666Y10313
X-55606Y2022
X-53066Y2022
X-48275Y1852
X-45735Y1852
X-40984Y1836
X-38444Y1836
X-33612Y2022
X-31072Y2022
X-26256Y2090
X-23716Y2090
X-18921Y2030
X-16381Y2030
X-11539Y2061
X-8999Y2061
X-4166Y2106
X-1626Y2106
X-33806Y42749
X-31266Y42749
X-55574Y-6035
X-53034Y-6035
X-48243Y-6205
X-45703Y-6205
X-40952Y-6221
X-38412Y-6221
X-33580Y-6035
X-31040Y-6035
X-26224Y-5967
X-23684Y-5967
T7
X-63583Y-5327
X-63583Y-2787
X-63583Y-247
T8
X-68640Y29237
X-68708Y35747
T9
X4178Y35242
X4178Y30162
T10
X-7620Y-33020
X10160Y-20320
X6350Y22860
X7620Y21590
X-6350Y-24130
X-6350Y-19050
X-19050Y-30480
X-19050Y-22860
X-16510Y-16510
X-13970Y-11430
X-27940Y-24130
X-28829Y-12700
X-12700Y-26670
X-12700Y-22860
X-38100Y-24130
X-35560Y-24130
X-43180Y-16510
X-43180Y-20320
X-24130Y-17780
X-20320Y-36830
X-11430Y-21590
X-8890Y-1270
X-27940Y-30480
X5080Y-16510
X-60960Y-7620
X-57150Y-1270
X-2540Y15240
X1270Y13970
X-67310Y-13970
X-54610Y-21590
X-1270Y-10160
X7620Y-16510
X-57150Y-26670
X-12700Y-35560
X0Y-34290
X-19050Y-35560
X1270Y-22860
X-11430Y-40640
X10160Y-26670
X-48260Y-27940
X0Y-29210
X-6350Y-39370
X-2540Y-22860
X-1270Y16510
X1270Y16510
X-21590Y-39370
X-34290Y-38100
X-50800Y24130
X-44450Y-31750
X-1270Y24130
X2540Y7620
X2540Y-13970
X0Y-21590
X0Y-25400
X-6350Y-31750
X-22860Y-20320
X6350Y-12700
X-50800Y-19050
X-2540Y-25400
X-6350Y-29210
X-36830Y-30480
X-3810Y-36830
X-26670Y-17780
X7620Y-25400
X-13970Y-27940
X-25400Y-29210
X7620Y6350
M30